<?xml version="1.0" encoding="UTF-8" standalone="no"?>
<!DOCTYPE svg PUBLIC "-//W3C//DTD SVG 1.1//EN" "http://www.w3.org/Graphics/SVG/1.1/DTD/svg11.dtd">
<svg width="100%" height="100%" viewBox="0 0 1443 452" version="1.1" xmlns="http://www.w3.org/2000/svg" xmlns:xlink="http://www.w3.org/1999/xlink" xml:space="preserve" xmlns:serif="http://www.serif.com/">
<path d="M0,-441.27L0.475,-441L2.773,-445.398L0,-441.27ZM-163.754,-357.837L-161.724,-354.997C-159.423,-355.946 -157.799,-356.757 -157.799,-356.757C-157.799,-356.757 -160.236,-357.093 -163.754,-357.837M-166.865,-379.56L-165.718,-377.935L-171.535,-377.935L-167.611,-372.32C-165.581,-371.98 -163.754,-371.71 -162.335,-371.777C-155.296,-371.912 -156.445,-374.553 -156.445,-374.553L-167.137,-375.566L-153.131,-380.78C-153.131,-380.78 -157.799,-379.357 -165.243,-379.493C-165.784,-379.493 -166.325,-379.56 -166.865,-379.56M-169.979,-390.183L-168.084,-388.424L-173.026,-388.153L-168.964,-382.47C-167.68,-382.402 -166.325,-382.402 -164.904,-382.402C-159.557,-382.402 -164.227,-386.799 -169.979,-390.183M-255.036,-453.923L-247.999,-464.21C-252.6,-461.504 -259.773,-457.714 -265.052,-456.769C-273.511,-455.348 -270.463,-460.22 -270.463,-460.22C-270.463,-460.22 -269.583,-459.611 -266.337,-458.457C-264.104,-457.646 -258.284,-455.28 -255.036,-453.923M-251.247,-447.7L-246.375,-456.294L-252.937,-453.046L-252.803,-452.978C-252.803,-452.978 -253.211,-452.843 -253.953,-452.572L-256.998,-451.083L-256.594,-451.627C-259.637,-450.678 -263.836,-449.46 -266.677,-449.326C-271.48,-449.191 -263.154,-452.166 -263.154,-452.166C-263.154,-452.166 -266.337,-446.755 -259.637,-446.888C-257.201,-446.888 -254.156,-447.294 -251.247,-447.7M-246.78,-448.375L-244.007,-454.399L-250.501,-447.768C-249.217,-447.971 -247.931,-448.174 -246.78,-448.375M-250.775,-439.851L-248.271,-445.264C-250.911,-443.842 -253.886,-442.624 -256.459,-442.492C-262.546,-442.22 -266.202,-441.612 -266.202,-441.612C-266.202,-441.612 -262.886,-440.325 -255.984,-439.851C-253.953,-439.714 -252.194,-439.783 -250.775,-439.851M-258.284,-423.749L-256.795,-426.858C-257.066,-426.791 -257.27,-426.791 -257.472,-426.725C-266.811,-425.437 -268.706,-430.311 -268.706,-430.311C-268.706,-430.311 -268.64,-423.27 -258.284,-423.749M-253.277,-414.138L-252.465,-415.694L-252.803,-415.557L-253.684,-414.205L-253.277,-414.138ZM-259.637,-402.161L-257.675,-405.881C-258.692,-405.407 -259.503,-405.002 -260.111,-404.799L-260.652,-403.921L-260.449,-404.666C-260.652,-404.53 -260.789,-404.53 -260.926,-404.461C-262.478,-404.191 -267.621,-409.538 -267.621,-409.538C-267.621,-409.538 -270.805,-403.175 -261.601,-402.295C-260.99,-402.229 -260.381,-402.229 -259.637,-402.161M-265.728,-390.791L-265.187,-391.741L-266.54,-391.741C-273.372,-391.741 -273.237,-397.356 -273.237,-397.356C-273.237,-397.356 -270.127,-393.636 -265.728,-390.791M-458.85,-392.753L-449.646,-414.41C-449.646,-414.41 -453.301,-411.499 -454.315,-411.16C-455.333,-410.888 -454.855,-412.647 -452.217,-419.079C-451.001,-422.123 -450.325,-424.22 -449.983,-425.573C-454.72,-422.054 -461.017,-417.656 -465.955,-415.491C-474.886,-411.568 -480.5,-412.243 -480.5,-412.243C-480.5,-412.243 -475.835,-405.338 -470.148,-404.934C-464.397,-404.461 -457.835,-407.101 -457.835,-407.101C-457.835,-407.101 -459.322,-402.161 -471.841,-399.116C-484.428,-396.004 -491.803,-401.957 -491.803,-401.957C-491.803,-401.957 -490.652,-398.575 -481.18,-396.073C-472.993,-393.973 -461.758,-392.957 -458.85,-392.753M-460.271,-389.373L-459.525,-391.131L-461.149,-389.304L-460.271,-389.373ZM-457.089,-389.576L-457.022,-389.845L-457.562,-389.507L-457.089,-389.576ZM-459.525,-376.516C-456.684,-380.37 -454.247,-383.688 -454.247,-383.688L-462.502,-378.003L-459.863,-383.622C-463.451,-381.861 -467.238,-380.303 -470.418,-379.762C-478.88,-378.343 -475.835,-383.211 -475.835,-383.211C-475.835,-383.211 -474.954,-382.603 -471.774,-381.455C-469.27,-380.506 -462.367,-377.732 -459.525,-376.516M-464.331,-369.883C-463.182,-371.507 -461.825,-373.334 -460.541,-375.093C-463.518,-374.079 -468.729,-372.455 -472.044,-372.32C-476.848,-372.183 -468.526,-375.162 -468.526,-375.162C-468.526,-375.162 -471.774,-369.68 -465.005,-369.815C-464.802,-369.883 -464.534,-369.883 -464.331,-369.883M-460.066,-370.221L-459.594,-371.304C-459.594,-371.304 -460.135,-370.832 -460.948,-370.153L-460.066,-370.221ZM-463.314,-362.981L-462.232,-365.483C-464.06,-365.348 -465.685,-365.214 -467.035,-365.146C-467.307,-364.943 -467.509,-364.808 -467.646,-364.74C-467.712,-364.671 -467.712,-364.808 -467.577,-365.078C-470.148,-364.808 -471.571,-364.605 -471.571,-364.605C-471.571,-364.605 -468.864,-363.523 -463.314,-362.981M-461.421,-362.844L-459.525,-365.214L-462.436,-362.913C-462.097,-362.913 -461.758,-362.844 -461.421,-362.844M-473.533,-351.139L-472.179,-351.139C-473.67,-352.155 -474.074,-353.306 -474.074,-353.306C-474.074,-353.306 -474.074,-352.358 -473.533,-351.139M-553.312,-351.815C-555.072,-352.763 -556.222,-353.576 -556.222,-353.576C-556.222,-353.576 -556.222,-352.763 -555.95,-351.682C-555.004,-351.682 -554.122,-351.75 -553.312,-351.815M-552.499,-375.093C-553.785,-375.566 -554.733,-375.498 -554.801,-375.025C-553.785,-375.025 -553.042,-375.093 -552.499,-375.093M-555.274,-377.528C-553.785,-376.852 -552.433,-376.516 -551.281,-376.313C-551.418,-376.852 -552.162,-377.461 -554.598,-377.528L-555.274,-377.528ZM-556.222,-380.846L-557.845,-381.387C-557.845,-381.387 -558.116,-381.184 -558.319,-380.846L-556.222,-380.846ZM-548.711,-383.756L-548.643,-383.756C-548.643,-383.756 -549.86,-383.485 -552.162,-384.297C-553.176,-384.432 -554.327,-384.635 -555.611,-384.836L-551.755,-380.983C-550.2,-381.049 -548.981,-381.184 -548.306,-381.455C-545.125,-382.603 -544.244,-383.211 -544.244,-383.211C-544.244,-383.211 -545.597,-383.282 -548.711,-383.756M-554.733,-401.62C-552.364,-399.183 -549.658,-396.949 -547.561,-395.327C-544.312,-395.258 -541.268,-395.46 -538.898,-396.073C-529.427,-398.575 -528.274,-401.957 -528.274,-401.957C-528.274,-401.957 -540.658,-398.168 -553.176,-401.213C-553.718,-401.35 -554.259,-401.485 -554.733,-401.62M-560.552,-418.332C-558.185,-415.829 -556.153,-414.476 -556.153,-414.476L-563.598,-415.22C-563.598,-415.22 -563.462,-415.289 -559.875,-408.116C-559.673,-407.843 -559.538,-407.507 -559.334,-407.236C-557.913,-407.033 -556.424,-406.964 -554.936,-407.033C-549.251,-407.507 -539.576,-412.243 -539.576,-412.243C-539.576,-412.243 -550.2,-413.664 -559.131,-417.587C-559.604,-417.859 -560.078,-418.062 -560.552,-418.332M-565.966,-431.933C-565.627,-429.633 -565.221,-427.469 -564.748,-425.64L-558.523,-423.002L-565.966,-431.933ZM163.822,-443.572L165.038,-443.503L161.995,-446.888C161.995,-446.888 182.091,-442.624 191.562,-445.129C201.038,-447.565 202.256,-450.948 202.256,-450.948C202.256,-450.948 189.806,-447.16 177.287,-450.205C164.771,-453.316 163.279,-458.254 163.279,-458.254C163.279,-458.254 169.846,-455.616 175.528,-456.092C181.211,-456.498 190.887,-461.234 190.887,-461.234C190.887,-461.234 180.266,-462.721 171.399,-466.647C162.469,-470.572 148.936,-481.806 148.936,-481.806L151.235,-480.79L143.454,-486.475L152.25,-467.933L162.74,-458.731L158.407,-458.457L164.771,-449.529L159.627,-449.529L163.822,-443.572ZM167.88,-429.971C173.092,-429.768 180.197,-429.768 182.159,-430.444C185.407,-431.597 186.286,-432.205 186.286,-432.205C186.286,-432.205 182.769,-432.476 174.311,-433.963C172.889,-434.235 171.265,-434.64 169.709,-435.249L169.91,-434.98L164.499,-434.708L167.88,-429.971ZM172.079,-424.017C176.68,-424.017 178.979,-424.22 178.979,-424.22C178.979,-424.22 180.736,-426.387 175.864,-426.522C174.107,-426.59 171.739,-427.061 169.438,-427.738L172.079,-424.017ZM170.521,-417.587C173.834,-418.13 175.46,-418.808 175.46,-418.808C175.46,-418.808 174.581,-418.943 172.889,-419.145L169.91,-419.145L170.521,-417.587ZM179.452,-401.079C182.769,-401.62 184.527,-402.295 184.527,-402.295C184.527,-402.295 182.159,-402.364 178.571,-402.633L179.452,-401.079ZM76.733,-439.107L75.788,-439.783L73.824,-438.974L74.84,-440.459L64.282,-448.106L74.365,-426.926L74.432,-426.926L76.463,-433.489L73.353,-431.189L76.733,-439.107ZM77.275,-440.459L77.275,-440.391L77.275,-440.459ZM75.854,-458.391L70.17,-461.234L76.463,-442.828L83.501,-453.248L78.291,-450.813L83.908,-461.573L74.162,-455.211L75.854,-458.391ZM-2.772,-454.06L-1.219,-457.376L-6.022,-456.97L-2.772,-454.06ZM-6.022,-447.091L-5.208,-448.782L-7.51,-447.565L-6.022,-447.091ZM-2.03,-445.941L-1.016,-449.46L-4.871,-446.755L-2.03,-445.941ZM-5.208,-444.319L-2.979,-442.962L-2.302,-445.061L-5.208,-444.319ZM-118.821,-454.128C-119.161,-454.333 -119.161,-454.399 -119.161,-454.399L-118.821,-454.06L-118.821,-454.128ZM-116.251,-459.542C-117.74,-460.287 -118.553,-460.828 -118.553,-460.828C-118.553,-460.828 -117.877,-459.675 -116.86,-458.19L-116.251,-459.542ZM-114.83,-467.73C-114.291,-467.189 -113.748,-466.647 -113.206,-466.172L-111.786,-469.217L-114.83,-467.73ZM-371.084,-441.475L-363.979,-440.258L-370.071,-445.941C-370.071,-445.941 -366.752,-444.588 -359.854,-445.061C-353.018,-445.466 -349.635,-446.822 -349.635,-446.822C-349.635,-446.822 -353.287,-447.363 -359.448,-447.7C-363.979,-447.903 -369.8,-451.559 -372.507,-453.451L-371.287,-451.489L-374.332,-451.895L-369.325,-443.099L-371.355,-442.624C-371.355,-442.624 -371.22,-442.152 -371.084,-441.475M-367.365,-430.375C-364.86,-429.836 -362.222,-429.431 -359.516,-429.091C-347.267,-427.603 -340.634,-430.311 -340.634,-430.311C-340.634,-430.311 -349.092,-430.579 -358.431,-431.933C-362.222,-432.476 -365.401,-434.235 -367.77,-436.127C-367.838,-436.062 -367.904,-436.062 -368.041,-435.994C-368.853,-435.519 -369.597,-436.805 -370.139,-438.294C-369.597,-437.752 -368.917,-437.077 -368.243,-436.537C-369.122,-436.468 -370.543,-436.195 -370.543,-436.195L-367.365,-430.375ZM-364.792,-418.943L-360.26,-419.752L-367.094,-422.19L-364.792,-418.943ZM-361.341,-407.236C-358.634,-407.236 -356.129,-407.304 -354.237,-407.507C-345.035,-408.385 -341.72,-409.538 -341.72,-409.538C-341.72,-409.538 -353.355,-409.401 -354.981,-409.671C-355.521,-409.74 -357.418,-410.685 -359.717,-411.836L-357.755,-409.129L-362.898,-411.703L-361.341,-407.236ZM-367.094,-398.233C-366.82,-398.37 -366.416,-398.508 -365.942,-398.711L-368.041,-400.199L-367.094,-398.233ZM-356.535,-393.025C-348.28,-394.176 -336.101,-397.356 -336.101,-397.356C-336.101,-397.356 -342.529,-396.882 -349.365,-396.882C-351.868,-396.882 -354.981,-397.017 -357.958,-397.221L-356.535,-393.025ZM-364.455,-392.687C-362.153,-392.619 -360.057,-392.619 -358.228,-392.822L-357.89,-392.89L-364.523,-397.625C-365.468,-397.762 -366.281,-397.829 -366.891,-397.829L-364.455,-392.687ZM-360.596,-384.635C-355.318,-385.851 -349.77,-387.139 -349.77,-387.139C-349.77,-387.139 -353.018,-387.139 -358.565,-387.411C-359.448,-387.477 -360.732,-387.678 -362.222,-388.018L-360.596,-384.635ZM-428.671,-374.553L-428.331,-373.809L-427.52,-375.296L-428.671,-374.553ZM-805.776,-428.55C-805.168,-428.414 -804.626,-428.347 -804.018,-428.21L-805.979,-429.228L-805.776,-428.55ZM-800.228,-412.311C-798.265,-412.311 -796.034,-412.243 -793.598,-412.243C-786.695,-412.243 -796.507,-419.485 -803.748,-422.528L-800.228,-412.311ZM-804.694,-404.191C-799.958,-402.837 -794.477,-401.553 -790.959,-401.62C-783.988,-401.756 -785.138,-404.394 -785.138,-404.394L-795.83,-405.407L-781.822,-410.619C-781.822,-410.619 -786.492,-409.198 -793.935,-409.333C-795.83,-409.333 -797.726,-409.604 -799.416,-409.943L-799.078,-409.063L-800.77,-410.212C-804.897,-411.228 -807.739,-412.647 -807.739,-412.647C-807.739,-412.647 -806.252,-412.581 -803.816,-412.446L-811.124,-417.724L-804.694,-404.191ZM-792.108,-384.094C-788.928,-385.378 -786.492,-386.597 -786.492,-386.597C-786.492,-386.597 -790.215,-387.071 -795.153,-388.355L-792.108,-384.094ZM-787.372,-370.086C-786.829,-370.221 -786.29,-370.29 -785.816,-370.423C-776.343,-372.928 -775.191,-376.313 -775.191,-376.313C-775.191,-376.313 -781.822,-374.214 -790.349,-374.349L-787.372,-370.086ZM-881.903,-341.936C-882.376,-341.666 -882.916,-341.395 -883.324,-341.26L-882.579,-340.584L-881.903,-341.936ZM-599.664,-352.086C-600.61,-352.221 -601.627,-352.626 -602.642,-353.171C-607.512,-351.139 -607.512,-351.139 -606.499,-351.139C-605.956,-351.139 -602.913,-351.479 -599.664,-352.086M-593.641,-347.283C-595.401,-347.418 -596.957,-347.62 -597.904,-347.754L-601.559,-345.592C-601.559,-345.592 -599.325,-344.17 -595.401,-346.335L-593.641,-347.283ZM-590.799,-345.999C-583.559,-347.688 -582.001,-350.394 -582.001,-350.394C-582.001,-350.394 -584.236,-348.772 -587.01,-347.62C-587.62,-347.35 -588.499,-347.214 -589.58,-347.146C-589.851,-346.742 -590.259,-346.335 -590.799,-345.999M-594.387,-336.052L-597.091,-336.457C-599.596,-336.793 -601.964,-337.538 -603.994,-338.418C-607.175,-338.014 -610.085,-337.336 -610.085,-337.336C-610.085,-337.336 -606.973,-334.561 -604.062,-334.02C-602.371,-333.682 -597.838,-334.966 -594.387,-336.052M-593.1,-332.529C-589.515,-333.819 -587.213,-335.102 -587.213,-335.102C-587.213,-335.102 -587.62,-335.102 -591.069,-335.578C-591.545,-334.696 -592.22,-333.547 -593.1,-332.529M-899.36,-402.295L-900.781,-404.257C-897.872,-403.65 -894.15,-403.513 -889.751,-404.598C-878.52,-407.304 -877.233,-411.771 -877.233,-411.771C-877.233,-411.771 -883.053,-409.401 -888.128,-409.806C-893.271,-410.212 -897.398,-416.303 -897.398,-416.303C-897.398,-416.303 -892.39,-415.694 -884.474,-419.213C-878.249,-421.986 -869.452,-428.755 -865.932,-431.529L-873.445,-415.356L-868.368,-418.943L-872.971,-403.583L-865.053,-415.356L-875.203,-396.138L-880.143,-395.867L-877.437,-398.846C-877.437,-398.846 -889.549,-399.724 -898.006,-401.889C-898.482,-402.024 -898.954,-402.161 -899.36,-402.295M-893.474,-389.98L-892.526,-389.98C-891.984,-389.777 -891.038,-389.373 -889.617,-388.832C-886.773,-387.815 -877.504,-383.957 -877.504,-383.957C-877.504,-383.957 -885.555,-380.846 -889.888,-380.709C-894.15,-380.573 -886.773,-383.211 -886.773,-383.211C-886.773,-383.211 -889.617,-378.343 -883.594,-378.478C-880.956,-378.546 -877.504,-379.017 -874.46,-379.493L-871.009,-384.567L-876.286,-382.13L-870.67,-392.822L-880.346,-386.462L-877.707,-391.469C-881.225,-389.642 -885.218,-387.881 -888.467,-387.342C-894.557,-386.259 -893.947,-388.966 -893.474,-389.98M-888.467,-373.471L-888.737,-373.877C-887.452,-374.079 -884.676,-374.417 -880.753,-374.553C-879.669,-374.621 -878.452,-374.89 -877.301,-375.296L-879.398,-372.183C-879.738,-372.183 -880.006,-372.183 -880.346,-372.251C-884.407,-372.522 -887.112,-373.063 -888.467,-373.471M-884.744,-357.906L-886.504,-360.476C-885.218,-360.275 -883.594,-360.275 -881.699,-360.544C-880.819,-360.615 -880.006,-360.818 -879.196,-361.087L-880.143,-358.041L-880.685,-357.973C-882.24,-357.769 -883.594,-357.769 -884.744,-357.906M-1004.58,-405.813L-1004.11,-405.137L-1003.77,-406.424L-1004.58,-405.813ZM-1003.77,-413.937L-1003.36,-413.122L-1002.82,-414.341L-1003.77,-413.937ZM-1050.6,-451.286L-1046.6,-456.429L-1050.87,-452.978L-1046.67,-462.454C-1046.67,-462.454 -1053.64,-456.294 -1054.65,-455.888C-1055.67,-455.481 -1041.26,-474.833 -1041.26,-474.833L-1049.58,-469.151L-1047.82,-472.94L-1054.12,-467.933L-1050.06,-468.205L-1063.18,-463.603L-1052.22,-461.641C-1052.22,-461.641 -1066.77,-453.791 -1068.39,-453.519C-1070.02,-453.181 -1075.09,-458.526 -1075.09,-458.526C-1075.09,-458.526 -1078.34,-452.166 -1069.14,-451.286C-1064.67,-450.881 -1057.16,-451.016 -1050.6,-451.286M-1052.36,-435.046L-1046.13,-444.182L-1057.5,-438.16L-1048.77,-448.174L-1051.88,-447.091L-1055.6,-444.858L-1054.59,-446.21L-1056.75,-445.466C-1056.75,-445.466 -1061.9,-444.385 -1059.12,-443.234C-1056.35,-442.083 -1055.47,-441.747 -1055.47,-441.747C-1055.47,-441.747 -1067.17,-440.731 -1074.01,-440.731C-1080.84,-440.731 -1080.71,-446.345 -1080.71,-446.345C-1080.71,-446.345 -1073.27,-437.549 -1065.14,-436.672C-1061.22,-436.263 -1056.35,-435.587 -1052.36,-435.046M-1056.96,-428.279L-1054.12,-432.476C-1058.11,-431.933 -1062.37,-431.394 -1064.81,-431.255C-1070.36,-430.986 -1073.6,-430.986 -1073.6,-430.986C-1073.6,-430.986 -1063.79,-429.431 -1056.96,-428.279M-1187.69,-410.349C-1187.55,-411.095 -1187.15,-411.703 -1187.15,-411.703C-1187.15,-411.703 -1186.81,-411.499 -1185.86,-411.095C-1186.47,-410.822 -1187.08,-410.55 -1187.69,-410.349M-1180.45,-428.347C-1181.33,-428.078 -1182.21,-427.874 -1183.22,-427.603C-1195.74,-424.56 -1203.12,-430.444 -1203.12,-430.444C-1203.12,-430.444 -1201.97,-427.129 -1192.49,-424.626C-1190.06,-424.017 -1187.35,-423.475 -1184.71,-423.002C-1178.35,-424.626 -1171.92,-425.911 -1170.43,-425.236C-1167.25,-423.749 -1169.01,-426.657 -1173.61,-426.657C-1175.31,-426.657 -1177.81,-427.401 -1180.45,-428.347M-1184.58,-441.543C-1189.11,-440.459 -1191.82,-440.731 -1191.82,-440.731C-1191.82,-440.731 -1187.15,-433.899 -1181.46,-433.42C-1175.78,-433.016 -1169.21,-435.656 -1169.21,-435.656C-1169.21,-435.656 -1169.55,-434.506 -1171.25,-432.95C-1165.36,-434.303 -1157.31,-436.127 -1157.31,-436.127C-1157.31,-436.127 -1160.49,-436.127 -1166.04,-436.468C-1169.69,-436.604 -1178.69,-439.513 -1184.58,-441.543M-1172.26,-446.687C-1174.02,-445.669 -1175.71,-444.723 -1177.27,-444.047C-1178.83,-443.37 -1180.25,-442.828 -1181.6,-442.355C-1176.46,-441.815 -1170.03,-441.409 -1165.76,-441.815C-1157.58,-442.693 -1143.57,-446.345 -1143.57,-446.345C-1143.57,-446.345 -1150,-445.941 -1156.9,-445.941C-1161.5,-445.941 -1168.34,-446.414 -1172.26,-446.687M-1155.68,-458.526C-1156.16,-458.122 -1156.83,-457.58 -1157.64,-456.97C-1151.55,-457.714 -1149.19,-458.526 -1149.19,-458.526L-1155.68,-458.526ZM-1176.25,-451.354L-1177.88,-449.394L-1174.63,-450.813L-1176.25,-451.354ZM-1192.22,-456.769C-1191.82,-456.429 -1191.14,-456.226 -1190.19,-456.024L-1192.22,-456.769ZM-1180.04,-475.715C-1187.35,-472.872 -1198.04,-465.091 -1190.87,-465.091C-1183.02,-465.091 -1176.73,-465.563 -1176.73,-465.563C-1176.73,-465.563 -1176.93,-463.671 -1184.37,-463.535C-1191.82,-463.398 -1196.49,-464.821 -1196.49,-464.821L-1187.49,-457.445L-1193.1,-458.526C-1193.1,-458.526 -1193.51,-457.783 -1192.7,-457.037C-1191.01,-456.902 -1186.07,-456.632 -1180.38,-456.429C-1174.9,-457.376 -1169.83,-459.067 -1169.83,-459.067L-1172.19,-456.226C-1168.2,-456.158 -1164.41,-456.226 -1161.77,-456.498L-1161.03,-456.566L-1156.5,-458.526C-1159.2,-458.526 -1161.77,-458.526 -1162.52,-458.663C-1164.07,-459 -1178.69,-466.849 -1178.69,-466.849L-1167.73,-468.746L-1180.85,-473.413L-1176.79,-473.143L-1180.04,-475.715ZM-1169.62,-481.871C-1170.23,-481.06 -1171.25,-479.977 -1172.67,-478.961C-1170.84,-478.623 -1168.95,-478.285 -1166.98,-478.083C-1154.74,-476.594 -1148.1,-479.301 -1148.1,-479.301C-1148.1,-479.301 -1156.56,-479.639 -1165.9,-480.925C-1167.25,-481.126 -1168.47,-481.466 -1169.62,-481.871M209.43,-575.252L209.43,267.896L-1245.38,237.4L-1246.42,-247.205L-1246.42,-425.844C-1240.4,-428.078 -1239.59,-430.444 -1239.59,-430.444C-1239.59,-430.444 -1242.3,-429.633 -1246.42,-429.091L-1246.42,-464.752L-1246.22,-464.821L-1246.42,-464.752L-1246.42,-483.495C-1243.11,-484.712 -1241.08,-485.931 -1241.08,-485.931C-1241.08,-485.931 -1241.62,-485.931 -1246.42,-486.541L-1246.42,-496.419C-1237.69,-498.045 -1235.87,-501.157 -1235.87,-501.157C-1235.87,-501.157 -1238.03,-499.535 -1240.81,-498.381C-1241.96,-497.909 -1244.19,-497.842 -1246.42,-497.977L-1246.42,-507.924C-1243.78,-510.361 -1240.81,-514.825 -1240.81,-514.825L-1246.42,-516.381L-1246.42,-517.666C-1245.41,-518.074 -1243.85,-518.682 -1241.55,-519.698C-1235.46,-522.27 -1236.95,-523.69 -1239.59,-522.674C-1241.28,-521.999 -1244.39,-522.606 -1246.42,-523.149L-1246.42,-524.164C-1244.8,-524.57 -1242.43,-525.314 -1239.86,-526.6C-1235.53,-528.765 -1234.52,-533.434 -1234.52,-533.434L-1243.11,-530.524L-1233.91,-539.727C-1233.91,-539.727 -1234.04,-539.457 -1237.83,-537.36C-1241.62,-535.33 -1243.65,-535.802 -1243.65,-535.802C-1243.65,-535.802 -1243.25,-535.939 -1240.6,-538.105C-1237.96,-540.336 -1234.52,-546.154 -1234.52,-546.154C-1234.52,-546.154 -1236.95,-544.532 -1240.74,-543.248C-1242.77,-542.501 -1244.93,-542.974 -1246.42,-543.516L-1246.42,-545.613C-1241.96,-547.846 -1231.81,-553.396 -1229.03,-558.877C-1225.38,-566.051 -1224.5,-572.479 -1224.5,-572.479L-1231.94,-571.735C-1231.94,-571.735 -1228.15,-574.236 -1224.91,-578.568C-1221.73,-582.967 -1221.39,-599.07 -1221.39,-599.07L-1221.39,-598.597L-1221.39,-599.07C-1221.39,-599.07 -1220.17,-576.469 -1216.99,-572.139C-1213.74,-567.74 -1209.95,-565.239 -1209.95,-565.239L-1217.39,-565.983C-1217.39,-565.983 -1217.33,-566.051 -1213.67,-558.877C-1210.09,-551.772 -1197.63,-543.313 -1197.63,-543.313C-1197.63,-543.313 -1201.63,-540.606 -1205.42,-541.96C-1209.21,-543.248 -1211.71,-544.87 -1211.71,-544.87C-1211.71,-544.87 -1208.19,-538.982 -1205.55,-536.817C-1202.91,-534.654 -1202.51,-534.517 -1202.51,-534.517C-1202.51,-534.517 -1204.54,-534.042 -1208.33,-536.074C-1212.12,-538.172 -1212.25,-538.441 -1212.25,-538.441L-1203.12,-529.239L-1211.71,-532.148C-1211.71,-532.148 -1213.88,-530.728 -1209.48,-528.494C-1205.15,-526.329 -1201.22,-526.87 -1201.22,-526.87C-1201.22,-526.87 -1203.73,-524.839 -1206.36,-525.856C-1208.93,-526.87 -1210.49,-525.518 -1204.34,-522.877C-1198.25,-520.24 -1197.5,-520.104 -1197.5,-520.104L-1205.08,-518.074C-1205.08,-518.074 -1200.14,-510.496 -1197.36,-509.749C-1194.59,-509.004 -1185.25,-509.749 -1185.25,-509.749C-1185.25,-509.749 -1190.19,-505.961 -1193.31,-505.961C-1196.35,-505.961 -1197.97,-506.572 -1197.97,-506.572C-1197.97,-506.572 -1196.76,-503.322 -1195.88,-502.917C-1195,-502.443 -1193.44,-501.901 -1193.44,-501.901C-1193.44,-501.901 -1202.31,-500.414 -1205.08,-501.563C-1207.86,-502.781 -1210.09,-504.338 -1210.09,-504.338C-1210.09,-504.338 -1210.49,-495.339 -1196.69,-494.323C-1182.82,-493.307 -1181.94,-493.647 -1181.94,-493.647C-1181.94,-493.647 -1188.91,-487.217 -1197.97,-485.865C-1207.04,-484.58 -1201.7,-485.931 -1201.7,-485.931C-1201.7,-485.931 -1197.97,-478.759 -1186.74,-480.18L-1185.86,-480.317L-1189.92,-483.495C-1189.92,-483.495 -1186.61,-482.277 -1181.6,-480.925C-1177.2,-481.601 -1173.82,-482.277 -1171.58,-482.752C-1177.34,-485.662 -1180.52,-490.872 -1180.52,-490.872L-1171.45,-489.248L-1177.61,-494.93C-1177.61,-494.93 -1174.22,-493.647 -1167.39,-494.051C-1160.49,-494.526 -1157.17,-495.812 -1157.17,-495.812C-1157.17,-495.812 -1160.83,-496.419 -1166.91,-496.691C-1173.07,-496.961 -1181.53,-503.525 -1181.53,-503.525C-1181.53,-503.525 -1170.43,-501.223 -1163.73,-501.09C-1157.04,-500.887 -1153.65,-501.223 -1153.65,-501.223C-1153.65,-501.223 -1151.89,-503.39 -1156.7,-503.525C-1161.57,-503.66 -1170.57,-507.179 -1170.57,-507.179C-1170.57,-507.179 -1153.65,-506.298 -1150.47,-507.451C-1147.22,-508.668 -1146.35,-509.209 -1146.35,-509.209C-1146.35,-509.209 -1149.86,-509.548 -1158.32,-510.968C-1166.78,-512.458 -1179.98,-521.253 -1179.98,-521.253L-1167.59,-520.509L-1170.64,-523.894C-1170.64,-523.894 -1150.54,-519.631 -1141.07,-522.133C-1131.59,-524.638 -1130.38,-527.953 -1130.38,-527.953C-1130.38,-527.953 -1142.83,-524.164 -1155.35,-527.208C-1167.86,-530.321 -1169.35,-535.261 -1169.35,-535.261C-1169.35,-535.261 -1162.79,-532.622 -1157.1,-533.096C-1151.42,-533.5 -1141.67,-538.24 -1141.67,-538.24C-1141.67,-538.24 -1152.37,-539.727 -1161.23,-543.653C-1170.16,-547.575 -1183.7,-558.809 -1183.7,-558.809L-1160.69,-549.064L-1168.67,-558.674C-1168.67,-558.674 -1153.25,-553.124 -1146.21,-553.259C-1139.24,-553.396 -1140.39,-556.037 -1140.39,-556.037L-1151.01,-557.048L-1137.01,-562.329C-1137.01,-562.329 -1141.67,-560.839 -1149.12,-560.974C-1156.56,-561.178 -1162.99,-564.358 -1162.99,-564.358C-1162.99,-564.358 -1156.7,-563.953 -1148.85,-563.953C-1141,-563.953 -1154.74,-573.357 -1161.77,-575.252C-1168.74,-577.146 -1171.11,-582.221 -1171.11,-582.221C-1171.11,-582.221 -1164.21,-580.462 -1152.98,-579.041C-1141.74,-577.554 -1131.86,-583.372 -1131.86,-583.372C-1131.86,-583.372 -1132.74,-583.372 -1141.74,-584.726C-1150.81,-586.012 -1157.85,-592.439 -1157.85,-592.439C-1157.85,-592.439 -1156.97,-592.167 -1143.1,-593.184C-1129.22,-594.198 -1126.65,-598.666 -1126.65,-598.666C-1126.65,-598.666 -1128.89,-597.04 -1131.66,-595.89C-1134.43,-594.672 -1143.3,-596.162 -1143.3,-596.162C-1143.3,-596.162 -1141.67,-596.772 -1140.79,-597.176C-1139.98,-597.649 -1138.77,-600.831 -1138.77,-600.831C-1138.77,-600.831 -1140.39,-600.222 -1143.43,-600.222C-1146.55,-600.222 -1151.49,-604.01 -1151.49,-604.01C-1151.49,-604.01 -1142.15,-603.333 -1139.37,-604.01C-1136.6,-604.754 -1131.66,-612.332 -1131.66,-612.332L-1139.24,-614.364C-1139.24,-614.364 -1138.5,-614.566 -1132.34,-617.138C-1126.25,-619.778 -1127.8,-621.198 -1130.38,-620.183C-1133.01,-619.101 -1139.17,-621.198 -1139.17,-621.198C-1139.17,-621.198 -1135.04,-621.874 -1130.71,-624.108C-1126.31,-626.273 -1125.3,-630.943 -1125.3,-630.943L-1133.89,-628.033L-1124.69,-637.235C-1124.69,-637.235 -1124.83,-636.896 -1128.62,-634.868C-1132.47,-632.836 -1134.5,-633.31 -1134.5,-633.31C-1134.5,-633.31 -1134.03,-633.447 -1131.39,-635.612C-1128.82,-637.775 -1125.3,-643.663 -1125.3,-643.663C-1125.3,-643.663 -1127.8,-642.039 -1131.59,-640.754C-1135.38,-639.401 -1139.37,-642.107 -1139.37,-642.107C-1139.37,-642.107 -1123.47,-649.281 -1119.82,-656.384C-1116.16,-663.558 -1115.29,-669.986 -1115.29,-669.986L-1122.73,-669.241C-1122.73,-669.241 -1118.94,-671.746 -1115.76,-676.076C-1112.51,-680.475 -1112.17,-696.579 -1112.17,-696.579L-1112.17,-696.106L-1112.17,-696.579C-1112.17,-696.579 -1111.02,-673.977 -1107.77,-669.581C-1104.59,-665.249 -1100.8,-662.746 -1100.8,-662.746L-1108.25,-663.49C-1108.25,-663.49 -1108.18,-663.558 -1104.53,-656.384C-1100.87,-649.281 -1088.42,-640.822 -1088.42,-640.822C-1088.42,-640.822 -1092.41,-638.117 -1096.2,-639.401C-1099.99,-640.754 -1102.5,-642.31 -1102.5,-642.31C-1102.5,-642.31 -1098.98,-636.491 -1096.4,-634.326C-1093.77,-632.16 -1093.3,-631.957 -1093.3,-631.957C-1093.3,-631.957 -1095.32,-631.55 -1099.11,-633.581C-1102.97,-635.612 -1103.11,-635.95 -1103.11,-635.95L-1093.9,-626.747L-1102.5,-629.656C-1102.5,-629.656 -1104.66,-628.166 -1100.33,-626.001C-1095.93,-623.837 -1092.01,-624.378 -1092.01,-624.378C-1092.01,-624.378 -1094.51,-622.348 -1097.15,-623.364C-1099.79,-624.378 -1101.28,-623.026 -1095.19,-620.387C-1089.03,-617.747 -1088.29,-617.612 -1088.29,-617.612L-1095.87,-615.582C-1095.87,-615.582 -1090.92,-608.002 -1088.15,-607.258C-1085.38,-606.515 -1076.04,-607.258 -1076.04,-607.258C-1076.04,-607.258 -1081.05,-603.468 -1084.09,-603.468C-1087.14,-603.468 -1088.76,-604.01 -1088.76,-604.01C-1088.76,-604.01 -1087.61,-600.831 -1086.73,-600.426C-1085.85,-599.95 -1084.23,-599.341 -1084.23,-599.341C-1084.23,-599.341 -1093.16,-597.92 -1095.87,-599.07C-1098.64,-600.222 -1100.87,-601.846 -1100.87,-601.846C-1100.87,-601.846 -1101.35,-592.845 -1087.47,-591.832C-1073.6,-590.815 -1072.72,-591.086 -1072.72,-591.086C-1072.72,-591.086 -1079.76,-584.726 -1088.76,-583.372C-1097.83,-582.086 -1092.48,-583.372 -1092.48,-583.372C-1092.48,-583.372 -1088.76,-576.266 -1077.53,-577.687C-1066.29,-579.176 -1059.46,-580.869 -1059.46,-580.869C-1059.46,-580.869 -1061.76,-575.793 -1068.8,-573.9C-1075.77,-572.004 -1089.57,-562.598 -1081.72,-562.598C-1073.8,-562.598 -1067.58,-563.005 -1067.58,-563.005C-1067.58,-563.005 -1067.72,-561.178 -1075.16,-560.974C-1082.6,-560.839 -1087.27,-562.329 -1087.27,-562.329L-1078.27,-554.952L-1083.96,-556.037C-1083.96,-556.037 -1085.11,-553.396 -1078.14,-553.259C-1071.1,-553.124 -1060.68,-556.576 -1060.68,-556.576L-1068.66,-546.899L-1045.66,-556.712C-1045.66,-556.712 -1059.19,-545.478 -1068.12,-541.554C-1076.99,-537.563 -1082.6,-538.24 -1082.6,-538.24C-1082.6,-538.24 -1077.93,-531.404 -1072.25,-530.931C-1066.57,-530.524 -1060,-533.165 -1060,-533.165C-1060,-533.165 -1061.42,-528.158 -1074.01,-525.111C-1086.53,-522.067 -1093.9,-527.953 -1093.9,-527.953C-1093.9,-527.953 -1092.75,-524.638 -1083.28,-522.133C-1073.8,-519.631 -1060.2,-518.682 -1060.2,-518.682L-1063.32,-515.37L-1050.87,-516.111C-1050.87,-516.111 -1064.13,-507.248 -1072.59,-505.827C-1081.05,-504.338 -1077.93,-509.209 -1077.93,-509.209C-1077.93,-509.209 -1077.05,-508.668 -1073.87,-507.451C-1070.69,-506.298 -1060.34,-502.037 -1060.34,-502.037C-1060.34,-502.037 -1069.34,-498.518 -1074.14,-498.381C-1078.95,-498.18 -1070.69,-501.223 -1070.69,-501.223C-1070.69,-501.223 -1073.87,-495.744 -1067.17,-495.878C-1060.48,-496.015 -1049.38,-498.381 -1049.38,-498.381C-1049.38,-498.381 -1057.84,-491.82 -1063.93,-491.481C-1070.08,-491.209 -1073.74,-490.6 -1073.74,-490.6C-1073.74,-490.6 -1070.36,-489.316 -1063.52,-488.912C-1056.69,-488.435 -1053.3,-489.721 -1053.3,-489.721L-1059.46,-484.038L-1050.39,-485.662C-1050.39,-485.662 -1055.67,-477.067 -1064.94,-475.715C-1074.28,-474.429 -1076.17,-479.301 -1076.17,-479.301C-1076.17,-479.301 -1076.11,-471.451 -1063.86,-472.872C-1056.82,-473.752 -1050.33,-475.376 -1046.06,-476.663L-1044.03,-480.993L-1047.89,-479.165L-1036.66,-505.555C-1036.66,-505.555 -1040.31,-502.644 -1041.33,-502.375C-1042.34,-502.037 -1041.93,-503.796 -1039.3,-510.224C-1036.66,-516.654 -1036.66,-518.819 -1036.66,-518.819L-1045.99,-513.744C-1045.99,-513.744 -1042.07,-518.682 -1039.7,-522.946C-1037.4,-527.142 -1033.95,-552.042 -1033.95,-552.042C-1033.48,-531.335 -1025.29,-519.495 -1025.29,-519.495L-1028.54,-519.495L-1024,-508.127L-1027.72,-509.073L-1021.02,-487.827L-1026.24,-492.158L-1023.19,-479.774L-1013.58,-467.529L-1017.37,-469.151L-1011.08,-456.158L-1014.33,-458.323L-1009.05,-444.926L-1013.65,-446.142L-1007.22,-436.263L-1010.74,-436.672L-1005.06,-426.59L-1007.29,-426.112C-1007.29,-426.112 -1005.67,-417.386 -1003.5,-418.536C-1001.4,-419.686 -1006.41,-418.808 -1006.41,-418.808L-1004.72,-415.694L-995.719,-429.025L-1001.67,-426.25L-995.244,-438.498L-1006.34,-431.189L-988.816,-464.142L-997.882,-450.745L-992.604,-468.205L-998.492,-464.142L-981.237,-501.223L-989.426,-492.902L-983.604,-503.121L-994.229,-497.842L-969.937,-533.366L-981.305,-527.413L-971.087,-539.05L-979.41,-534.11L-970.411,-545.613L-974.673,-542.164L-970.479,-551.637C-970.479,-551.637 -977.448,-545.546 -978.463,-545.074C-979.479,-544.668 -965.065,-564.085 -965.065,-564.085L-973.389,-558.403L-967.84,-570.177L-971.697,-568.35L-960.463,-594.74C-960.463,-594.74 -964.118,-591.832 -965.131,-591.56C-966.146,-591.29 -965.741,-593.049 -963.103,-599.41C-960.463,-605.837 -960.463,-608.071 -960.463,-608.071L-969.801,-602.927C-969.801,-602.927 -965.877,-607.868 -963.508,-612.129C-961.207,-616.326 -957.757,-641.227 -957.757,-641.227C-957.283,-620.522 -949.096,-608.747 -949.096,-608.747L-952.343,-608.747L-947.81,-597.379L-951.532,-598.326L-944.832,-577.011L-950.041,-581.41L-946.997,-568.959L-937.389,-556.712L-941.178,-558.334L-934.885,-545.345L-938.134,-547.575L-932.855,-534.11L-937.458,-535.394L-931.028,-525.45L-934.548,-525.856L-931.435,-520.443C-931.164,-520.849 -930.825,-521.322 -930.623,-521.796C-927.376,-528.158 -926.563,-533.909 -926.563,-533.909L-933.261,-533.233C-933.261,-533.233 -929.81,-535.462 -926.969,-539.32C-924.127,-543.248 -923.788,-557.659 -923.788,-557.659L-923.788,-557.185L-923.788,-557.659C-923.788,-557.659 -922.773,-537.426 -919.863,-533.569C-917.021,-529.645 -913.638,-527.413 -913.638,-527.413L-920.271,-528.089C-920.271,-528.089 -920.202,-528.158 -916.953,-521.796C-913.707,-515.37 -902.608,-507.856 -902.608,-507.856C-902.608,-507.856 -906.195,-505.418 -909.577,-506.638C-912.962,-507.79 -915.195,-509.209 -915.195,-509.209C-915.195,-509.209 -912.013,-503.999 -909.713,-502.037C-907.345,-500.074 -906.938,-500.005 -906.938,-500.005C-906.938,-500.005 -908.766,-499.601 -912.149,-501.426C-915.533,-503.255 -915.667,-503.457 -915.667,-503.457L-907.48,-495.271L-915.195,-497.909C-915.195,-497.909 -917.088,-496.556 -913.231,-494.663C-909.306,-492.699 -905.856,-493.173 -905.856,-493.173C-905.856,-493.173 -908.021,-491.344 -910.389,-492.292C-912.691,-493.173 -914.112,-491.955 -908.631,-489.585C-903.15,-487.286 -902.474,-487.149 -902.474,-487.149L-909.24,-485.324C-909.24,-485.324 -904.841,-478.556 -902.339,-477.88C-899.903,-477.271 -891.579,-477.88 -891.579,-477.88C-891.579,-477.88 -895.978,-474.498 -898.751,-474.498C-901.458,-474.498 -902.878,-475.039 -902.878,-475.039C-902.878,-475.039 -901.863,-472.196 -901.053,-471.791C-900.308,-471.384 -898.888,-470.841 -898.888,-470.841C-898.888,-470.841 -906.803,-469.557 -909.24,-470.572C-911.744,-471.654 -913.707,-473.077 -913.707,-473.077C-913.707,-473.077 -914.112,-465.023 -901.729,-464.142C-889.345,-463.197 -888.601,-463.466 -888.601,-463.466C-888.601,-463.466 -894.826,-457.783 -902.878,-456.566C-911,-455.413 -906.195,-456.632 -906.195,-456.632C-906.195,-456.632 -902.878,-450.205 -892.863,-451.489C-882.848,-452.843 -876.76,-454.399 -876.76,-454.399C-876.76,-454.399 -878.857,-449.798 -885.082,-448.106C-891.309,-446.414 -903.623,-438.024 -896.585,-438.024C-889.549,-438.024 -884,-438.429 -884,-438.429C-884,-438.429 -884.135,-436.74 -890.766,-436.604C-897.398,-436.468 -901.592,-437.821 -901.592,-437.821L-893.542,-431.189L-898.616,-432.205C-898.616,-432.205 -899.632,-429.836 -893.405,-429.7C-887.112,-429.567 -877.841,-432.609 -877.841,-432.609L-884.948,-424.017L-865.595,-432.273L-858.354,-447.834L-865.527,-440.528L-860.452,-449.46L-869.722,-444.858L-848.474,-475.985L-858.421,-470.775L-849.489,-480.993L-856.797,-476.594L-848.88,-486.745L-852.602,-483.698L-848.947,-492.021C-848.947,-492.021 -855.038,-486.678 -855.919,-486.27C-856.866,-485.865 -844.212,-502.917 -844.212,-502.917L-851.452,-497.909L-846.648,-508.262L-850.031,-506.638L-840.152,-529.78C-840.152,-529.78 -843.331,-527.208 -844.279,-527.006C-845.159,-526.735 -844.753,-528.291 -842.453,-533.909C-840.152,-539.525 -840.152,-541.419 -840.152,-541.419L-848.339,-536.952C-848.339,-536.952 -844.888,-541.283 -842.859,-545.005C-840.829,-548.728 -837.785,-570.515 -837.785,-570.515C-837.377,-552.382 -830.206,-542.029 -830.206,-542.029L-833.047,-542.029L-829.055,-532.08L-832.302,-532.893L-826.483,-514.216L-831.084,-518.074L-828.377,-507.179L-819.919,-496.488L-823.234,-497.842L-817.754,-486.475L-820.596,-488.435L-815.995,-476.663L-819.987,-477.744L-814.371,-469.082L-817.417,-469.422L-812.476,-460.624L-814.439,-460.152C-814.439,-460.152 -812.95,-452.504 -811.124,-453.519C-809.227,-454.536 -813.694,-453.791 -813.694,-453.791L-807.536,-442.556L-812.881,-443.572L-801.717,-427.874C-800.499,-427.671 -799.146,-427.535 -797.792,-427.332C-786.559,-425.844 -776.612,-431.732 -776.612,-431.732C-776.612,-431.732 -777.492,-431.732 -786.559,-433.016C-795.559,-434.303 -802.598,-440.731 -802.598,-440.731C-802.598,-440.731 -801.717,-440.459 -787.844,-441.475C-773.973,-442.492 -771.47,-446.957 -771.47,-446.957C-771.47,-446.957 -773.635,-445.332 -776.409,-444.182C-779.184,-443.031 -788.048,-444.454 -788.048,-444.454C-788.048,-444.454 -786.492,-445.061 -785.612,-445.466C-784.732,-445.941 -783.514,-449.123 -783.514,-449.123C-783.514,-449.123 -785.138,-448.58 -788.183,-448.58C-791.296,-448.58 -796.236,-452.37 -796.236,-452.37C-796.236,-452.37 -786.897,-451.627 -784.123,-452.37C-781.35,-453.115 -776.409,-460.691 -776.409,-460.691L-783.988,-462.721C-783.988,-462.721 -783.243,-462.858 -777.155,-465.497C-770.997,-468.136 -772.552,-469.489 -775.191,-468.473C-777.764,-467.46 -783.919,-469.489 -783.919,-469.489C-783.919,-469.489 -779.86,-470.233 -775.461,-472.4C-771.064,-474.564 -770.049,-479.233 -770.049,-479.233L-778.642,-476.323L-769.44,-485.525C-769.44,-485.525 -769.642,-485.257 -773.433,-483.227C-777.221,-481.126 -779.25,-481.601 -779.25,-481.601C-779.25,-481.601 -778.779,-481.738 -776.206,-483.903C-773.567,-486.134 -770.049,-491.955 -770.049,-491.955C-770.049,-491.955 -772.552,-490.333 -776.343,-489.044C-780.131,-487.692 -784.123,-490.397 -784.123,-490.397C-784.123,-490.397 -768.221,-497.569 -764.568,-504.743C-760.914,-511.85 -760.034,-518.276 -760.034,-518.276L-767.477,-517.533C-767.477,-517.533 -763.688,-520.036 -760.508,-524.435C-757.259,-528.765 -756.922,-544.937 -756.922,-544.937L-756.922,-544.395L-756.922,-544.937C-756.922,-544.937 -755.772,-522.27 -752.523,-517.939C-749.343,-513.541 -745.555,-511.037 -745.555,-511.037L-752.997,-511.782C-752.997,-511.782 -752.929,-511.85 -749.276,-504.743C-745.62,-497.569 -733.171,-489.113 -733.171,-489.113C-733.171,-489.113 -737.23,-486.407 -741.019,-487.758C-744.81,-489.044 -747.246,-490.668 -747.246,-490.668C-747.246,-490.668 -743.794,-484.849 -741.156,-482.616C-738.517,-480.45 -738.043,-480.317 -738.043,-480.317C-738.043,-480.317 -740.14,-479.84 -743.929,-481.871C-747.718,-483.971 -747.854,-484.241 -747.854,-484.241L-738.651,-475.039L-747.246,-477.949C-747.246,-477.949 -749.479,-476.528 -745.079,-474.292C-740.682,-472.127 -736.825,-472.668 -736.825,-472.668C-736.825,-472.668 -739.261,-470.64 -741.9,-471.654C-744.54,-472.668 -746.027,-471.316 -739.937,-468.678C-733.779,-466.038 -733.104,-465.903 -733.104,-465.903L-740.682,-463.874C-740.682,-463.874 -735.673,-456.294 -732.9,-455.549C-730.125,-454.805 -720.854,-455.549 -720.854,-455.549C-720.854,-455.549 -725.794,-451.762 -728.839,-451.762C-731.885,-451.762 -733.508,-452.37 -733.508,-452.37C-733.508,-452.37 -732.359,-449.123 -731.479,-448.713C-730.599,-448.241 -728.975,-447.7 -728.975,-447.7C-728.975,-447.7 -737.907,-446.21 -740.682,-447.363C-743.456,-448.58 -745.62,-450.136 -745.62,-450.136C-745.62,-450.136 -746.094,-441.202 -732.222,-440.19C-718.352,-439.107 -717.471,-439.447 -717.471,-439.447C-717.471,-439.447 -724.509,-433.016 -733.508,-431.666C-742.576,-430.375 -737.23,-431.732 -737.23,-431.732C-737.23,-431.732 -733.508,-424.56 -722.275,-425.979C-711.043,-427.469 -704.208,-429.228 -704.208,-429.228C-704.208,-429.228 -706.577,-424.085 -713.546,-422.19C-720.585,-420.295 -734.321,-410.888 -726.471,-410.888C-718.554,-410.888 -712.328,-411.363 -712.328,-411.363C-712.328,-411.363 -712.533,-409.469 -719.975,-409.333C-727.418,-409.198 -732.02,-410.619 -732.02,-410.619L-723.088,-403.242L-728.705,-404.394C-728.705,-404.394 -729.854,-401.756 -722.885,-401.62C-715.848,-401.416 -705.427,-404.868 -705.427,-404.868L-713.412,-395.258L-690.405,-405.002C-690.405,-405.002 -703.938,-393.771 -712.87,-389.845C-721.735,-385.921 -727.418,-386.597 -727.418,-386.597C-727.418,-386.597 -722.683,-379.694 -716.998,-379.289C-711.315,-378.816 -704.749,-381.455 -704.749,-381.455C-704.749,-381.455 -706.24,-376.516 -718.758,-373.403C-731.275,-370.355 -738.72,-376.313 -738.72,-376.313C-738.72,-376.313 -737.501,-372.928 -728.028,-370.423C-718.554,-367.988 -705.021,-367.041 -705.021,-367.041L-708.066,-363.659L-695.683,-364.402C-695.683,-364.402 -708.878,-355.536 -717.337,-354.117C-725.794,-352.626 -722.751,-357.566 -722.751,-357.566C-722.751,-357.566 -721.87,-356.958 -718.621,-355.809C-715.442,-354.591 -705.09,-350.328 -705.09,-350.328C-705.09,-350.328 -714.088,-346.808 -718.894,-346.675C-723.764,-346.539 -715.442,-349.517 -715.442,-349.517C-715.442,-349.517 -718.621,-344.034 -711.923,-344.17C-705.225,-344.305 -694.128,-346.675 -694.128,-346.675C-694.128,-346.675 -702.585,-340.11 -708.744,-339.837L-709.081,-339.771L-703.871,-337.131C-700.015,-337.336 -698.051,-338.081 -698.051,-338.081L-700.757,-335.578L-697.035,-333.615L-695.141,-333.952C-695.141,-333.952 -695.412,-333.615 -695.817,-333.005L-683.639,-326.778C-685.127,-328.81 -685.736,-330.772 -685.736,-330.772C-685.736,-330.772 -673.353,-327.999 -671.932,-327.999C-670.443,-327.999 -671.187,-328.335 -675.518,-330.028C-679.916,-331.787 -681.811,-337.469 -681.811,-337.469C-681.811,-337.469 -670.917,-333.411 -667.939,-334.02C-665.031,-334.561 -661.985,-337.336 -661.985,-337.336C-661.985,-337.336 -665.166,-338.081 -668.548,-338.554C-671.932,-338.958 -676.939,-343.832 -680.322,-345.456C-683.639,-347.08 -683.504,-350.124 -683.504,-350.124C-683.504,-350.124 -680.592,-348.5 -676.668,-346.335C-672.677,-344.17 -670.511,-345.592 -670.511,-345.592C-670.511,-345.592 -672.677,-346.876 -678.835,-350.531C-684.991,-354.185 -688.443,-359.598 -688.443,-359.598C-688.443,-359.598 -684.112,-356.417 -680.322,-354.32C-676.533,-352.29 -666.586,-351.139 -665.571,-351.139C-664.557,-351.139 -664.557,-351.139 -669.496,-353.171C-674.435,-355.2 -677.683,-360.476 -675.925,-359.869C-674.166,-359.327 -664.827,-357.296 -664.827,-357.296C-664.827,-357.296 -666.452,-357.837 -670.511,-359.598C-674.57,-361.357 -679.24,-364.402 -679.24,-364.402L-665.979,-362.374L-677.683,-369.68C-677.683,-369.68 -661.917,-366.297 -663.542,-366.432C-665.097,-366.569 -679.24,-374.755 -679.24,-374.755L-664.082,-371.845L-677.617,-380.641C-677.617,-380.641 -664.76,-376.042 -666.046,-376.313C-667.399,-376.582 -680.187,-390.454 -680.187,-390.454C-680.187,-390.454 -666.518,-380.983 -658.805,-377.461C-651.022,-373.942 -643.783,-377.327 -643.783,-377.327C-643.783,-377.327 -656.437,-380.846 -664.624,-386.191C-672.811,-391.606 -675.857,-396.882 -675.857,-396.882C-675.857,-396.882 -663.473,-389.845 -664.894,-390.183C-666.383,-390.454 -674.978,-400.67 -674.978,-400.67L-655.421,-392.349C-655.421,-392.349 -659.076,-394.379 -663.134,-396.275C-667.263,-398.168 -677.007,-406.492 -677.007,-406.492C-677.007,-406.492 -670.443,-402.972 -666.248,-401.213C-661.985,-399.523 -651.903,-396.748 -651.903,-396.748C-651.903,-396.748 -656.773,-400.13 -660.428,-402.024C-664.082,-403.921 -669.091,-410.212 -669.091,-410.212L-657.518,-403.921L-668.617,-412.581C-668.617,-412.581 -650.957,-405.541 -647.504,-405.274C-643.985,-404.934 -642.226,-405.678 -642.226,-405.678C-642.226,-405.678 -645.745,-406.56 -655.963,-409.806C-666.112,-412.987 -667.872,-419.282 -667.872,-419.282L-654.879,-416.372L-664.421,-422.461L-654.337,-419.145L-670.646,-431.933C-670.646,-431.933 -664.557,-425.707 -656.234,-421.851C-647.91,-418.062 -644.527,-418.67 -644.527,-418.67L-638.708,-422.731C-638.708,-422.731 -642.633,-422.934 -650.551,-424.828C-658.399,-426.725 -664.421,-434.166 -664.421,-434.166L-651.972,-428.89C-651.972,-428.89 -654.745,-431.394 -659.413,-434.166C-664.082,-436.942 -665.979,-444.657 -665.979,-444.657C-665.979,-444.657 -653.189,-432.813 -651.294,-432.542C-649.399,-432.273 -639.045,-431.052 -639.045,-431.052C-639.045,-431.052 -643.985,-432.813 -645.61,-435.183C-647.166,-437.481 -655.016,-440.797 -655.016,-440.797L-659.209,-445.873L-654.542,-444.454L-661.714,-451.42L-655.15,-448.511L-661.375,-461.369L-639.521,-439.175L-653.256,-459.135L-639.79,-445.466L-639.384,-449.257L-658.467,-478.828L-644.461,-460.152L-650.481,-481.195L-639.994,-460.894L-637.76,-473.752L-641.549,-488.638L-637.489,-478.152L-636,-493.173L-634.58,-478.152L-630.452,-488.638L-634.242,-473.752L-632.075,-460.894L-621.589,-481.195L-627.542,-460.152L-613.536,-478.828L-632.686,-449.257L-632.212,-445.466L-618.813,-459.135L-632.549,-439.175L-610.626,-461.369L-616.92,-448.511L-610.355,-451.42L-617.527,-444.454L-612.859,-445.873L-617.054,-440.797C-617.054,-440.797 -624.836,-437.481 -626.459,-435.183C-628.084,-432.813 -633.025,-431.052 -633.025,-431.052C-633.025,-431.052 -622.671,-432.273 -620.776,-432.542C-618.88,-432.813 -606.024,-444.657 -606.024,-444.657C-606.024,-444.657 -607.919,-436.942 -612.587,-434.166C-617.257,-431.394 -620.031,-428.89 -620.031,-428.89L-607.648,-434.166C-607.648,-434.166 -613.603,-426.725 -621.519,-424.828C-629.371,-422.934 -633.294,-422.731 -633.294,-422.731L-627.475,-418.67C-627.475,-418.67 -624.159,-418.062 -615.836,-421.851C-607.512,-425.707 -601.355,-431.933 -601.355,-431.933L-617.731,-419.145L-607.648,-422.461L-617.122,-416.372L-604.131,-419.282C-604.131,-419.282 -605.889,-412.987 -616.106,-409.806C-626.324,-406.56 -629.843,-405.678 -629.843,-405.678C-629.843,-405.678 -628.084,-404.934 -624.564,-405.274C-621.047,-405.541 -603.452,-412.581 -603.452,-412.581L-614.483,-403.921L-602.979,-410.212C-602.979,-410.212 -607.919,-403.921 -611.573,-402.024C-615.228,-400.13 -620.098,-396.748 -620.098,-396.748C-620.098,-396.748 -610.085,-399.523 -605.822,-401.213C-601.627,-402.972 -595.062,-406.492 -595.062,-406.492C-595.062,-406.492 -604.808,-398.168 -608.866,-396.275C-612.994,-394.379 -616.648,-392.349 -616.648,-392.349L-597.091,-400.67C-597.091,-400.67 -605.686,-390.454 -607.175,-390.183C-608.596,-389.845 -596.213,-396.882 -596.213,-396.882C-596.213,-396.882 -599.259,-391.606 -607.445,-386.191C-615.633,-380.846 -628.287,-377.327 -628.287,-377.327C-628.287,-377.327 -620.979,-373.942 -613.265,-377.461C-605.552,-380.983 -591.813,-390.454 -591.813,-390.454C-591.813,-390.454 -604.671,-376.582 -605.956,-376.313C-607.31,-376.042 -594.453,-380.641 -594.453,-380.641L-607.919,-371.845L-592.763,-374.755C-592.763,-374.755 -606.904,-366.569 -608.527,-366.432C-610.153,-366.297 -594.387,-369.68 -594.387,-369.68L-606.024,-362.374L-592.763,-364.402C-592.763,-364.402 -597.431,-361.357 -601.559,-359.598C-605.617,-357.837 -607.243,-357.296 -607.243,-357.296C-607.243,-357.296 -597.904,-359.327 -596.145,-359.869C-594.857,-360.341 -596.213,-357.703 -598.851,-355.471C-597.159,-355.471 -595.604,-355.536 -594.724,-355.743C-591.95,-356.486 -587.01,-364.064 -587.01,-364.064L-594.589,-366.163C-594.589,-366.163 -593.845,-366.297 -587.687,-368.869C-581.597,-371.507 -583.085,-372.928 -585.724,-371.912C-588.362,-370.899 -594.521,-372.928 -594.521,-372.928C-594.521,-372.928 -590.394,-373.674 -586.062,-375.839C-581.664,-378.003 -580.648,-382.671 -580.648,-382.671L-589.243,-379.762L-580.041,-388.966C-580.041,-388.966 -580.176,-388.696 -583.966,-386.597C-587.754,-384.567 -589.851,-385.041 -589.851,-385.041C-589.851,-385.041 -589.378,-385.175 -586.739,-387.342C-584.101,-389.576 -580.648,-395.392 -580.648,-395.392C-580.648,-395.392 -583.085,-393.771 -586.874,-392.484C-590.732,-391.131 -594.724,-393.839 -594.724,-393.839C-594.724,-393.839 -578.822,-401.01 -575.169,-408.116C-571.515,-415.289 -570.634,-421.718 -570.634,-421.718L-578.079,-420.972C-578.079,-420.972 -575.371,-422.731 -572.598,-425.911C-577.673,-429.567 -581.597,-432.813 -581.597,-432.813L-570.837,-428.21C-567.86,-433.084 -567.523,-448.307 -567.523,-448.307L-567.523,-447.834L-567.523,-448.307C-567.523,-448.307 -567.048,-439.986 -566.034,-432.476C-563.259,-431.462 -550.334,-427.129 -544.11,-427.264C-537.072,-427.401 -538.29,-430.04 -538.29,-430.04L-548.913,-431.052L-534.906,-436.263C-534.906,-436.263 -539.576,-434.843 -547.019,-434.98C-554.462,-435.115 -560.892,-438.361 -560.892,-438.361C-560.892,-438.361 -554.598,-437.887 -546.748,-437.887C-538.832,-437.887 -552.636,-447.294 -559.604,-449.191C-566.643,-451.083 -568.943,-456.226 -568.943,-456.226C-568.943,-456.226 -562.109,-454.467 -550.876,-452.978C-539.643,-451.559 -529.696,-457.376 -529.696,-457.376C-529.696,-457.376 -530.576,-457.376 -539.643,-458.663C-548.711,-460.017 -555.68,-466.444 -555.68,-466.444C-555.68,-466.444 -554.801,-466.106 -540.929,-467.121C-527.125,-468.136 -524.554,-472.602 -524.554,-472.602C-524.554,-472.602 -526.719,-470.978 -529.493,-469.827C-532.269,-468.678 -541.2,-470.098 -541.2,-470.098C-541.2,-470.098 -539.576,-470.707 -538.696,-471.181C-537.816,-471.587 -536.665,-474.765 -536.665,-474.765C-536.665,-474.765 -538.29,-474.226 -541.334,-474.226C-544.381,-474.226 -549.319,-478.015 -549.319,-478.015C-549.319,-478.015 -539.981,-477.271 -537.207,-478.015C-534.434,-478.759 -529.493,-486.338 -529.493,-486.338L-537.072,-488.367C-537.072,-488.367 -536.396,-488.503 -530.236,-491.141C-524.08,-493.782 -525.636,-495.135 -528.274,-494.12C-530.912,-493.105 -537.004,-495.135 -537.004,-495.135C-537.004,-495.135 -532.944,-495.878 -528.546,-498.045C-524.146,-500.279 -523.135,-504.946 -523.135,-504.946L-531.795,-501.969L-522.592,-511.17C-522.592,-511.17 -522.727,-510.902 -526.516,-508.872C-530.307,-506.843 -532.335,-507.248 -532.335,-507.248C-532.335,-507.248 -531.929,-507.382 -529.29,-509.616C-526.652,-511.782 -523.135,-517.599 -523.135,-517.599C-523.135,-517.599 -525.636,-515.977 -529.427,-514.691C-533.216,-513.404 -537.207,-516.111 -537.207,-516.111C-537.207,-516.111 -521.306,-523.217 -517.718,-530.387C-514.065,-537.495 -513.186,-543.924 -513.186,-543.924L-520.629,-543.179C-520.629,-543.179 -516.84,-545.683 -513.592,-550.08C-510.409,-554.411 -510.005,-570.582 -510.005,-570.582L-510.005,-570.042L-510.005,-570.582C-510.005,-570.582 -508.856,-547.983 -505.674,-543.584C-502.428,-539.185 -498.639,-536.75 -498.639,-536.75L-506.082,-537.426C-506.082,-537.426 -506.014,-537.495 -502.359,-530.387C-498.705,-523.217 -486.321,-514.758 -486.321,-514.758C-486.321,-514.758 -490.313,-512.051 -494.103,-513.404C-497.893,-514.691 -500.396,-516.313 -500.396,-516.313C-500.396,-516.313 -496.878,-510.496 -494.239,-508.262C-491.6,-506.097 -491.193,-505.961 -491.193,-505.961C-491.193,-505.961 -493.222,-505.487 -497.013,-507.584C-500.804,-509.616 -500.938,-509.886 -500.938,-509.886L-491.736,-500.684L-500.396,-503.593C-500.396,-503.593 -502.561,-502.172 -498.164,-500.005C-493.833,-497.774 -489.907,-498.314 -489.907,-498.314C-489.907,-498.314 -492.412,-496.285 -494.982,-497.368C-497.621,-498.381 -499.178,-496.961 -493.021,-494.323C-486.931,-491.752 -486.187,-491.549 -486.187,-491.549L-493.767,-489.519C-493.767,-489.519 -488.826,-481.939 -486.054,-481.195C-483.276,-480.518 -473.937,-481.195 -473.937,-481.195C-473.937,-481.195 -478.88,-477.407 -481.923,-477.407C-485.035,-477.407 -486.593,-478.015 -486.593,-478.015C-486.593,-478.015 -485.44,-474.833 -484.562,-474.361C-483.684,-473.955 -482.126,-473.344 -482.126,-473.344C-482.126,-473.344 -490.992,-471.856 -493.767,-473.077C-496.54,-474.226 -498.705,-475.85 -498.705,-475.85C-498.705,-475.85 -499.178,-466.849 -485.307,-465.834C-471.503,-464.821 -470.623,-465.091 -470.623,-465.091C-470.623,-465.091 -477.592,-458.663 -486.661,-457.376C-495.658,-456.024 -490.313,-457.376 -490.313,-457.376C-490.313,-457.376 -486.661,-450.205 -475.425,-451.694C-464.194,-453.115 -457.292,-454.874 -457.292,-454.874C-457.292,-454.874 -459.66,-449.798 -466.631,-447.903C-473.67,-446.009 -487.473,-436.537 -479.556,-436.537C-471.706,-436.537 -465.412,-437.01 -465.412,-437.01C-465.412,-437.01 -465.616,-435.115 -473.06,-434.98C-480.5,-434.843 -485.171,-436.263 -485.171,-436.263L-476.171,-428.89L-481.788,-430.04C-481.788,-430.04 -483.005,-427.401 -475.97,-427.264C-468.998,-427.129 -458.511,-430.512 -458.511,-430.512L-466.564,-420.904L-457.226,-424.828C-455.873,-426.657 -454.044,-429.363 -452.689,-431.732C-450.325,-435.994 -446.938,-460.828 -446.938,-460.828C-446.466,-440.19 -438.277,-428.347 -438.277,-428.347L-441.459,-428.347L-436.991,-416.98L-440.714,-417.927L-433.947,-396.613L-439.226,-401.01L-436.181,-388.627L-430.564,-381.523L-421.901,-397.762L-429.818,-386.058L-425.22,-401.35L-430.361,-397.762L-415.272,-430.243L-422.444,-422.934L-417.301,-431.933L-426.64,-427.332L-405.393,-458.457L-415.341,-453.181L-406.406,-463.398L-413.648,-459.067L-405.73,-469.151L-409.52,-466.172L-405.799,-474.498C-405.799,-474.498 -411.954,-469.082 -412.836,-468.746C-413.715,-468.338 -401.06,-485.324 -401.06,-485.324L-408.368,-480.383L-403.497,-490.737L-406.88,-489.113L-397.067,-512.254C-397.067,-512.254 -400.251,-509.684 -401.128,-509.414C-402.008,-509.209 -401.671,-510.699 -399.369,-516.313C-397.067,-521.93 -397.067,-523.894 -397.067,-523.894L-405.259,-519.428C-405.259,-519.428 -401.805,-523.758 -399.709,-527.48C-397.679,-531.134 -394.701,-552.921 -394.701,-552.921C-394.294,-534.855 -387.124,-524.503 -387.124,-524.503L-389.897,-524.503L-385.974,-514.488L-389.219,-515.37L-383.331,-496.691L-387.936,-500.547L-385.297,-489.654L-376.836,-478.896L-380.153,-480.317L-374.672,-468.948L-377.445,-470.841L-372.845,-459.135L-376.902,-460.22L-373.116,-454.333C-370.34,-453.791 -361.745,-452.166 -356.197,-452.032C-349.502,-451.895 -346.182,-452.166 -346.182,-452.166C-346.182,-452.166 -344.425,-454.399 -349.23,-454.536C-354.032,-454.67 -363.102,-458.19 -363.102,-458.19C-363.102,-458.19 -346.182,-457.31 -342.937,-458.457C-339.755,-459.611 -338.873,-460.22 -338.873,-460.22C-338.873,-460.22 -342.328,-460.488 -350.853,-461.977C-359.311,-463.398 -372.507,-472.264 -372.507,-472.264L-360.057,-471.519L-363.168,-474.902C-363.168,-474.902 -343.004,-470.64 -333.528,-473.143C-324.057,-475.579 -322.905,-478.961 -322.905,-478.961C-322.905,-478.961 -335.289,-475.173 -347.808,-478.218C-360.393,-481.263 -361.813,-486.27 -361.813,-486.27C-361.813,-486.27 -355.251,-483.631 -349.568,-484.038C-343.882,-484.511 -334.208,-489.248 -334.208,-489.248C-334.208,-489.248 -344.83,-490.668 -353.763,-494.663C-362.627,-498.584 -376.228,-509.818 -376.228,-509.818L-353.154,-500.005L-361.204,-509.684C-361.204,-509.684 -345.709,-504.135 -338.74,-504.27C-331.705,-504.406 -332.853,-507.044 -332.853,-507.044L-343.544,-508.059L-329.54,-513.337C-329.54,-513.337 -334.208,-511.85 -341.651,-511.983C-349.092,-512.12 -355.521,-515.37 -355.521,-515.37C-355.521,-515.37 -349.23,-514.893 -341.311,-514.893C-333.462,-514.893 -347.267,-524.3 -354.237,-526.194C-361.272,-528.089 -363.574,-533.233 -363.574,-533.233C-363.574,-533.233 -356.742,-531.472 -345.506,-529.983C-334.274,-528.562 -324.328,-534.382 -324.328,-534.382C-324.328,-534.382 -325.207,-534.382 -334.274,-535.667C-343.341,-537.02 -350.312,-543.45 -350.312,-543.45C-350.312,-543.45 -349.434,-543.111 -335.56,-544.124C-321.689,-545.208 -319.185,-549.607 -319.185,-549.607C-319.185,-549.607 -321.349,-548.049 -324.125,-546.831C-326.899,-545.683 -335.83,-547.17 -335.83,-547.17C-335.83,-547.17 -334.208,-547.711 -333.325,-548.186C-332.446,-548.591 -331.295,-551.84 -331.295,-551.84C-331.295,-551.84 -332.853,-551.229 -335.966,-551.229C-339.01,-551.229 -343.948,-555.02 -343.948,-555.02C-343.948,-555.02 -334.613,-554.276 -331.838,-555.02C-329.064,-555.764 -324.125,-563.343 -324.125,-563.343L-331.705,-565.374C-331.705,-565.374 -330.959,-565.506 -324.869,-568.147C-318.71,-570.787 -320.266,-572.139 -322.905,-571.126C-325.546,-570.111 -331.637,-572.139 -331.637,-572.139C-331.637,-572.139 -327.574,-572.883 -323.175,-575.048C-318.778,-577.283 -317.764,-581.951 -317.764,-581.951L-326.356,-579.041L-317.223,-588.177C-317.223,-588.177 -317.359,-587.906 -321.145,-585.875C-324.936,-583.846 -326.966,-584.251 -326.966,-584.251C-326.966,-584.251 -326.562,-584.388 -323.922,-586.622C-321.281,-588.787 -317.764,-594.605 -317.764,-594.605C-317.764,-594.605 -320.266,-593.049 -324.057,-591.697C-327.846,-590.411 -331.838,-593.118 -331.838,-593.118C-331.838,-593.118 -315.937,-600.222 -312.284,-607.395C-308.694,-614.566 -307.817,-620.927 -307.817,-620.927L-315.261,-620.251C-315.261,-620.251 -311.472,-622.687 -308.222,-627.085C-305.042,-631.482 -304.636,-647.587 -304.636,-647.587L-304.636,-647.114L-304.636,-647.587C-304.636,-647.587 -303.484,-624.987 -300.306,-620.59C-297.058,-616.19 -293.267,-613.753 -293.267,-613.753L-300.712,-614.499C-300.712,-614.499 -300.644,-614.566 -296.991,-607.395C-293.335,-600.222 -280.885,-591.832 -280.885,-591.832C-280.885,-591.832 -284.945,-589.123 -288.736,-590.411C-292.523,-591.697 -294.96,-593.319 -294.96,-593.319C-294.96,-593.319 -291.51,-587.5 -288.869,-585.335C-286.231,-583.102 -285.824,-582.967 -285.824,-582.967C-285.824,-582.967 -287.855,-582.561 -291.646,-584.591C-295.434,-586.622 -295.568,-586.889 -295.568,-586.889L-286.368,-577.755L-294.96,-580.666C-294.96,-580.666 -297.194,-579.176 -292.793,-577.011C-288.395,-574.778 -284.54,-575.321 -284.54,-575.321C-284.54,-575.321 -286.976,-573.357 -289.613,-574.373C-292.254,-575.389 -293.812,-573.968 -287.651,-571.394C-281.562,-568.756 -280.816,-568.622 -280.816,-568.622L-288.395,-566.523C-288.395,-566.523 -283.458,-558.946 -280.682,-558.266C-277.908,-557.524 -268.571,-558.266 -268.571,-558.266C-268.571,-558.266 -273.511,-554.411 -276.556,-554.411C-279.667,-554.411 -281.225,-555.02 -281.225,-555.02C-281.225,-555.02 -280.073,-551.84 -279.194,-551.366C-278.312,-550.961 -276.69,-550.351 -276.69,-550.351C-276.69,-550.351 -285.621,-548.931 -288.395,-550.08C-291.171,-551.229 -293.335,-552.855 -293.335,-552.855C-293.335,-552.855 -293.812,-543.856 -279.938,-542.839C-266.065,-541.824 -265.187,-542.095 -265.187,-542.095C-265.187,-542.095 -272.224,-535.667 -281.293,-534.382C-290.292,-533.03 -284.945,-534.382 -284.945,-534.382C-284.945,-534.382 -281.293,-527.208 -270.059,-528.697C-258.825,-530.118 -251.923,-531.876 -251.923,-531.876C-251.923,-531.876 -254.292,-526.803 -261.263,-524.908C-268.299,-523.014 -282.035,-513.607 -274.187,-513.607C-266.337,-513.607 -260.043,-514.013 -260.043,-514.013C-260.043,-514.013 -260.244,-512.12 -267.689,-511.983C-275.133,-511.85 -279.802,-513.337 -279.802,-513.337L-270.805,-505.961L-276.421,-507.044C-276.421,-507.044 -277.568,-504.406 -270.6,-504.27C-263.564,-504.135 -253.143,-507.516 -253.143,-507.516L-261.194,-497.909L-238.122,-507.653C-238.122,-507.653 -251.653,-496.419 -260.584,-492.496C-269.45,-488.57 -275.133,-489.248 -275.133,-489.248C-275.133,-489.248 -270.396,-482.345 -264.712,-481.939C-259.028,-481.466 -252.465,-484.104 -252.465,-484.104C-252.465,-484.104 -253.953,-479.165 -266.473,-476.12C-279.06,-473.008 -286.435,-478.961 -286.435,-478.961C-286.435,-478.961 -285.281,-475.579 -275.741,-473.143C-266.269,-470.64 -252.734,-469.69 -252.734,-469.69L-255.782,-466.309L-246.172,-466.917L-232.706,-486.61L-244.075,-480.586L-233.858,-492.292L-242.18,-487.286L-233.112,-498.857L-237.44,-495.407L-233.249,-504.877C-233.249,-504.877 -240.218,-498.789 -241.233,-498.314C-242.248,-497.909 -227.836,-517.261 -227.836,-517.261L-236.156,-511.579L-230.61,-523.419L-234.466,-521.591L-223.233,-547.983C-223.233,-547.983 -226.886,-545.074 -227.904,-544.801C-228.916,-544.465 -228.512,-546.222 -225.873,-552.652C-223.233,-559.08 -223.233,-561.245 -223.233,-561.245L-232.569,-556.169C-232.569,-556.169 -228.646,-561.111 -226.278,-565.374C-223.977,-569.569 -220.527,-594.469 -220.527,-594.469C-220.052,-573.765 -211.864,-561.989 -211.864,-561.989L-215.112,-561.989L-210.58,-550.553L-214.301,-551.5L-207.601,-530.254L-212.813,-534.585L-209.766,-522.202L-200.16,-509.953L-203.947,-511.579L-197.655,-498.584L-200.904,-500.75L-195.625,-487.352L-200.229,-488.57L-193.798,-478.691L-197.317,-479.097L-191.632,-469.014L-193.864,-468.541C-193.864,-468.541 -192.174,-459.812 -190.078,-460.962C-187.979,-462.112 -192.986,-461.234 -192.986,-461.234L-186.016,-448.375L-192.105,-449.597L-178.437,-430.311L-184.257,-433.217L-176.341,-410.212L-190.078,-420.092L-180.132,-399.251C-177.22,-398.711 -173.497,-398.1 -169.099,-397.491C-157.867,-396.073 -147.921,-401.889 -147.921,-401.889C-147.921,-401.889 -148.8,-401.889 -157.867,-403.175C-166.934,-404.53 -173.903,-410.957 -173.903,-410.957C-173.903,-410.957 -173.026,-410.619 -159.151,-411.634C-145.28,-412.647 -142.777,-417.115 -142.777,-417.115C-142.777,-417.115 -144.944,-415.491 -147.718,-414.341C-150.49,-413.19 -159.423,-414.677 -159.423,-414.677C-159.423,-414.677 -157.799,-415.22 -156.918,-415.694C-156.038,-416.098 -154.892,-419.348 -154.892,-419.348C-154.892,-419.348 -156.445,-418.74 -159.557,-418.74C-162.604,-418.74 -167.543,-422.528 -167.543,-422.528C-167.543,-422.528 -158.204,-421.785 -155.431,-422.528C-152.657,-423.27 -147.718,-430.85 -147.718,-430.85L-155.296,-432.881C-155.296,-432.881 -154.551,-433.016 -148.46,-435.656C-142.305,-438.294 -143.858,-439.65 -146.498,-438.632C-149.137,-437.618 -155.229,-439.65 -155.229,-439.65C-155.229,-439.65 -151.167,-440.391 -146.768,-442.556C-142.371,-444.79 -141.354,-449.46 -141.354,-449.46L-149.951,-446.55L-140.815,-455.684C-140.815,-455.684 -140.948,-455.413 -144.739,-453.382C-148.528,-451.354 -150.559,-451.762 -150.559,-451.762C-150.559,-451.762 -150.154,-451.895 -147.515,-454.128C-144.876,-456.294 -141.354,-462.112 -141.354,-462.112C-141.354,-462.112 -143.858,-460.488 -147.649,-459.204C-151.438,-457.918 -155.431,-460.624 -155.431,-460.624C-155.431,-460.624 -139.529,-467.73 -135.875,-474.902C-132.291,-482.007 -131.408,-488.435 -131.408,-488.435L-138.852,-487.758C-138.852,-487.758 -135.063,-490.196 -131.814,-494.594C-128.635,-498.925 -128.229,-515.096 -128.229,-515.096L-128.229,-514.556L-128.229,-515.096C-128.229,-515.096 -127.079,-492.496 -123.896,-488.098C-120.65,-483.698 -116.86,-481.263 -116.86,-481.263L-124.306,-481.939C-124.306,-481.939 -124.237,-482.007 -120.581,-474.902C-119.636,-473.077 -118.213,-471.181 -116.454,-469.354L-108.063,-485.189L-113.138,-482.345L-106.711,-503.457L-109.823,-501.157L-105.899,-510.427L-109.351,-508.938L-99.674,-523.217L-104.884,-520.781L-99.269,-531.539L-109.011,-525.179L-93.65,-554.006L-101.569,-542.298L-96.967,-557.59L-102.11,-554.006L-87.02,-586.485L-94.126,-579.176L-89.051,-588.177L-98.388,-583.575L-77.073,-614.703L-87.088,-609.425L-78.086,-619.641L-85.395,-615.31L-77.478,-625.394L-81.269,-622.416L-77.546,-630.74C-77.546,-630.74 -83.704,-625.326 -84.583,-624.987C-85.463,-624.581 -72.81,-641.566 -72.81,-641.566L-80.118,-636.625L-75.244,-646.98L-78.629,-645.354L-68.816,-668.497C-68.816,-668.497 -71.998,-665.927 -72.878,-665.653C-73.759,-665.451 -73.417,-666.94 -71.119,-672.557C-68.816,-678.173 -68.816,-680.136 -68.816,-680.136L-76.938,-675.668C-76.938,-675.668 -73.485,-680.001 -71.457,-683.722C-69.428,-687.378 -66.45,-709.166 -66.45,-709.166C-65.974,-691.098 -58.87,-680.744 -58.87,-680.744L-61.646,-680.744L-57.719,-670.73L-60.967,-671.61L-55.081,-652.933L-59.683,-656.79L-56.977,-645.896L-48.587,-635.136L-51.901,-636.557L-46.422,-625.19L-49.194,-627.085L-44.593,-615.378L-48.655,-616.462L-42.969,-607.734L-46.081,-608.139L-41.075,-599.341L-43.035,-598.869C-43.035,-598.869 -41.616,-591.222 -39.721,-592.236C-37.894,-593.252 -42.292,-592.509 -42.292,-592.509L-36.135,-581.207L-41.55,-582.221L-29.502,-565.374L-34.646,-567.945L-27.743,-547.711L-39.721,-556.441L-30.927,-537.9L-20.435,-528.697L-24.766,-528.427L-18.406,-519.495L-23.481,-519.495L-13.263,-504.946L-18.678,-504.674L-7.645,-489.044L-13.263,-489.044L-11.369,-484.58L-2.706,-469.286L-8.527,-470.03L-0.746,-458.457L10.354,-482.414L2.234,-474.089L8.052,-484.307L-2.569,-479.097L21.653,-514.556L10.287,-508.6L20.504,-520.308L12.179,-515.299L21.248,-526.87L16.916,-523.419L21.18,-532.893C21.18,-532.893 14.142,-526.735 13.129,-526.329C12.11,-525.856 26.593,-545.277 26.593,-545.277L18.271,-539.593L23.818,-551.434L19.963,-549.607L31.195,-575.999C31.195,-575.999 27.543,-573.086 26.524,-572.817C25.443,-572.479 25.917,-574.236 28.555,-580.666C31.195,-587.092 31.195,-589.259 31.195,-589.259L21.856,-584.185C21.856,-584.185 25.78,-589.123 28.082,-593.319C30.451,-597.584 33.833,-622.484 33.833,-622.484C34.307,-601.778 42.494,-589.936 42.494,-589.936L39.313,-589.936L43.849,-578.568L40.124,-579.516L46.825,-558.266L41.547,-562.598L44.592,-550.216L54.269,-537.968L50.481,-539.593L56.705,-526.6L53.524,-528.765L58.735,-515.37L54.2,-516.585L60.561,-506.707L57.11,-507.111L62.793,-497.03L60.496,-496.556C60.496,-496.556 62.185,-487.758 64.282,-488.978C66.449,-490.129 61.374,-489.248 61.374,-489.248L68.413,-476.391L62.253,-477.542L75.923,-458.457L89.522,-484.104L81.605,-472.331L86.21,-487.624L81.066,-484.104L96.156,-516.517L88.982,-509.278L94.126,-518.21L84.787,-513.607L106.104,-544.734L96.088,-539.457L105.018,-549.675L97.777,-545.345L105.697,-555.425L101.906,-552.451L105.627,-560.771C105.627,-560.771 99.47,-555.358 98.592,-555.02C97.71,-554.616 110.364,-571.598 110.364,-571.598L103.056,-566.66L107.927,-577.011L104.546,-575.389L114.356,-598.529C114.356,-598.529 111.179,-595.958 110.297,-595.687C109.418,-595.484 109.756,-596.973 112.056,-602.587C114.356,-608.207 114.356,-610.167 114.356,-610.167L106.17,-605.703C106.17,-605.703 109.621,-610.033 111.718,-613.753C113.748,-617.41 116.727,-639.266 116.727,-639.266C117.131,-621.129 124.303,-610.777 124.303,-610.777L121.53,-610.777L125.454,-600.762L122.206,-601.643L128.093,-582.967L123.494,-586.825L126.2,-575.928L134.59,-565.17L131.275,-566.591L136.755,-555.223L133.981,-557.117L138.58,-545.412L134.521,-546.494L140.138,-537.764L137.093,-538.172L142.1,-529.375L140.069,-528.9C140.069,-528.9 141.561,-521.253 143.454,-522.27C145.281,-523.286 140.881,-522.54 140.881,-522.54L146.974,-511.239L141.627,-512.254L153.671,-495.407L148.527,-497.977L154.957,-479.233L171.942,-472.061L163.958,-481.669C163.958,-481.669 179.386,-476.12 186.421,-476.256C193.392,-476.391 192.242,-479.03 192.242,-479.03L181.619,-480.045L195.557,-485.324C195.557,-485.324 190.887,-483.834 183.512,-483.971C176.068,-484.104 169.643,-487.352 169.643,-487.352C169.643,-487.352 175.864,-486.879 183.783,-486.879C191.633,-486.879 177.895,-496.285 170.858,-498.18C163.888,-500.074 161.521,-505.217 161.521,-505.217C161.521,-505.217 168.354,-503.457 179.589,-502.037C190.82,-500.547 200.767,-506.367 200.767,-506.367C200.767,-506.367 199.89,-506.367 190.82,-507.719C181.822,-509.004 174.784,-515.434 174.784,-515.434C174.784,-515.434 175.661,-515.165 189.536,-516.178C203.407,-517.195 205.977,-521.591 205.977,-521.591C205.977,-521.591 203.743,-520.036 200.97,-518.819C198.195,-517.666 189.333,-519.155 189.333,-519.155C189.333,-519.155 190.887,-519.698 191.77,-520.171C192.648,-520.578 193.865,-523.826 193.865,-523.826C193.865,-523.826 192.242,-523.217 189.194,-523.217C186.083,-523.217 181.143,-527.006 181.143,-527.006C181.143,-527.006 190.481,-526.26 193.257,-527.006C196.03,-527.749 200.97,-535.33 200.97,-535.33L193.392,-537.36C193.392,-537.36 194.136,-537.495 200.226,-540.133C206.382,-542.771 204.829,-544.192 202.256,-543.111C199.618,-542.095 193.46,-544.192 193.46,-544.192C193.46,-544.192 197.588,-544.87 201.92,-547.104C206.316,-549.267 207.331,-553.938 207.331,-553.938L198.736,-551.028L207.94,-560.23C207.94,-560.23 207.806,-559.892 203.946,-557.862C200.159,-555.833 198.129,-556.238 198.129,-556.238C198.129,-556.238 198.602,-556.441 201.242,-558.606C203.812,-560.771 207.331,-566.591 207.331,-566.591C207.331,-566.591 204.829,-565.036 201.038,-563.681C197.249,-562.397 193.257,-565.102 193.257,-565.102C193.257,-565.102 203.54,-569.703 209.43,-575.252Z" style="fill:rgb(0,60,108);"/>

</svg>
